<?xml version="1.0" encoding="UTF-8" standalone="no" ?>
<!DOCTYPE svg PUBLIC "-//W3C//DTD SVG 1.1//EN" "http://www.w3.org/Graphics/SVG/1.1/DTD/svg11.dtd">
<svg xmlns="http://www.w3.org/2000/svg" xmlns:xlink="http://www.w3.org/1999/xlink" version="1.1" width="1080" height="1080" viewBox="0 0 1080 1080" xml:space="preserve">
<desc>Created with Fabric.js 5.2.4</desc>
<defs>
</defs>
<g transform="matrix(1 0 0 1 540 540)" id="e8de2149-ab56-490a-9964-da3c8a0db040"  >
<rect style="stroke: none; stroke-width: 1; stroke-dasharray: none; stroke-linecap: butt; stroke-dashoffset: 0; stroke-linejoin: miter; stroke-miterlimit: 4; fill: rgb(255,255,255); fill-rule: nonzero; opacity: 1; visibility: hidden;" vector-effect="non-scaling-stroke"  x="-540" y="-540" rx="0" ry="0" width="1080" height="1080" />
</g>
<g transform="matrix(1 0 0 1 540 540)" id="dd543ebc-ca27-4e8a-a454-26a8be7dd502"  >
</g>
<g transform="matrix(-1.1 0 0 1 540 540)"  >
<g style="opacity: 1;" vector-effect="non-scaling-stroke"   >
		<g transform="matrix(1 0 0 1 -23.25 -20.59)"  >
<path style="stroke: none; stroke-width: 1; stroke-dasharray: none; stroke-linecap: butt; stroke-dashoffset: 0; stroke-linejoin: miter; stroke-miterlimit: 4; fill: rgb(255,255,255); fill-rule: nonzero; opacity: 1;" vector-effect="non-scaling-stroke"  transform=" translate(-78.3, -124.88)" d="M 108.521 195.245 C 102.163 187.284 95.576 179.436 90.363 170.65300000000002 C 87.237 165.11800000000002 84.391 159.42900000000003 81.697 153.675 C 73.982 137.406 67.383 120.3 65.971 102.2 C 84.0615173809436 91.56805279527057 101.08639314479413 79.219082149354 116.81000000000006 65.32399999999994 C 123.25656271877047 59.68526216807387 128.91081804577823 53.200478171759016 133.619 46.045999999999964 C 138.719 37.254 144.842 24.88 141.463 14.646 C 134.77599999999998 -2.154 110.621 -2.5539999999999985 96.322 3.755000000000001 C 80.60819348223501 11.333108869411777 67.89254386317464 23.966006407040986 60.21200000000001 39.63000000000001 C 50.366 59.356 50 82.217 51.025 103.8 C 35.423 113.816 19.4 123.89 1.763 129.869 C 0.8742816155438191 129.94208458908284 0.14836345780534899 130.60871050932025 0 131.488 C -0.084 134.044 3.218 132.728 4.664 132.332 C 9.79161733126776 130.7269456676942 14.822030367580215 128.8264338528336 19.729999999999976 126.64000000000004 C 30.64128697033287 121.8753813793872 41.285342061915 116.52080575859449 51.61499999999994 110.60000000000008 C 54.459 135.255 64.87100000000001 158.295 76.286 180.07 C 84.066 193.99599999999998 95.033 205.76999999999998 106.748 216.47 C 121.44959529768471 230.1975661563196 138.2847777712304 241.44421242127171 156.59500000000008 249.76999999999995 C 139.166 232.975 123.6 214.214 108.521 195.245 Z M 65.275 85.957 C 65.348 69.196 67.20700000000001 51.721 76.55300000000001 37.35699999999999 C 81.97523772805333 29.287393240690875 89.14748144220604 22.544465549269688 97.536 17.630000000000003 C 104.91904202961223 13.55182926540351 113.64250721772994 12.64945161850289 121.704 15.129999999999995 C 126.745 16.747999999999998 130.81400000000002 20.715 129.231 26.351 C 128.23001902707057 30.764107576032703 126.72933533259206 35.04875579024801 124.75800000000001 39.122 C 114.139 59.051 84.114 81.04 65.412 94.136 C 65.308 91.412 65.252 88.688 65.275 85.957 Z" stroke-linecap="round" />
</g>
		<g transform="matrix(1 0 0 1 53.61 91.97)"  >
<path style="stroke: none; stroke-width: 1; stroke-dasharray: none; stroke-linecap: butt; stroke-dashoffset: 0; stroke-linejoin: miter; stroke-miterlimit: 4; fill: rgb(255,255,255); fill-rule: nonzero; opacity: 1;" vector-effect="non-scaling-stroke"  transform=" translate(-155.16, -237.44)" d="M 202.86 280.177 C 201.811 276.918 200.113 273.88800000000003 198.96 270.656 C 196.18800000000002 263.00100000000003 193.489 255.316 190.645 247.68900000000002 C 187.44593082698913 238.97299814436047 184.95878321826717 230.011976203295 183.20799999999997 220.894 C 180.946 209.501 178.308 198.03 176.668 186.502 C 177.1107598311526 186.13939461152418 177.30084052777616 185.55154198297356 177.15419977954144 184.9983553717915 C 177.0075590313067 184.4451687606094 176.55124013415838 184.02866612168845 175.987 183.93300000000002 C 172.237 183.77 173.052 189.06500000000003 172.977 191.59500000000003 C 173.125 195.68900000000002 173.377 199.77900000000002 173.653 203.86800000000002 C 174.188 211.747 174.80499999999998 219.61800000000002 175.69899999999998 227.46800000000002 C 177.517 244.65900000000002 183.05599999999998 261.209 188.37099999999998 277.57800000000003 C 176.07099999999997 275.82000000000005 163.87099999999998 273.41700000000003 151.54699999999997 271.858 C 136.84699999999998 270.145 121.91999999999997 271.153 107.21099999999997 270.558 C 121.74799999999998 276.74399999999997 137.45099999999996 279.202 152.55499999999998 283.589 C 164.52299999999997 286.952 176.70499999999998 290.045 189.14899999999997 290.882 C 193.14899999999997 291.074 197.63299999999998 291.075 200.64899999999997 288.007 C 202.72017928495612 285.9724572151464 203.56111767451299 282.9943714665122 202.86 280.177 Z" stroke-linecap="round" />
</g>
</g>
</g>
</svg>